<svg width="670" height="594" viewBox="0 0 670 594" fill="none" xmlns="http://www.w3.org/2000/svg">
<path d="M249.06 410.134C249.06 411.455 248.025 412.5 246.78 412.5C245.535 412.5 244.5 411.455 244.5 410.134C244.5 408.813 245.535 407.768 246.78 407.768C248.025 407.768 249.06 408.813 249.06 410.134Z" stroke="#66C4FF"/>
<path d="M247.707 408.223L585 -272" stroke="#66C4FF"/>
<path d="M327.06 437.134C327.06 438.455 326.025 439.5 324.78 439.5C323.535 439.5 322.5 438.455 322.5 437.134C322.5 435.813 323.535 434.768 324.78 434.768C326.025 434.768 327.06 435.813 327.06 437.134Z" stroke="#66C4FF"/>
<path d="M325.707 435.223L663 -245" stroke="#66C4FF"/>
<path d="M255.06 526.134C255.06 527.455 254.025 528.5 252.78 528.5C251.535 528.5 250.5 527.455 250.5 526.134C250.5 524.813 251.535 523.768 252.78 523.768C254.025 523.768 255.06 524.813 255.06 526.134Z" stroke="#66C4FF"/>
<path d="M253.707 524.223L591 -156" stroke="#66C4FF"/>
<path d="M333.06 553.134C333.06 554.455 332.025 555.5 330.78 555.5C329.535 555.5 328.5 554.455 328.5 553.134C328.5 551.813 329.535 550.768 330.78 550.768C332.025 550.768 333.06 551.813 333.06 553.134Z" stroke="#66C4FF"/>
<path d="M331.707 551.223L669 -129" stroke="#66C4FF"/>
<path d="M283.06 585.134C283.06 586.455 282.025 587.5 280.78 587.5C279.535 587.5 278.5 586.455 278.5 585.134C278.5 583.813 279.535 582.768 280.78 582.768C282.025 582.768 283.06 583.813 283.06 585.134Z" stroke="#66C4FF"/>
<path d="M281.707 583.223L619 -97" stroke="#66C4FF"/>
<path d="M226.06 285.134C226.06 286.455 225.025 287.5 223.78 287.5C222.535 287.5 221.5 286.455 221.5 285.134C221.5 283.813 222.535 282.768 223.78 282.768C225.025 282.768 226.06 283.813 226.06 285.134Z" stroke="#66C4FF"/>
<path d="M224.707 283.223L562 -397" stroke="#66C4FF"/>
<path d="M309.06 330.134C309.06 331.455 308.025 332.5 306.78 332.5C305.535 332.5 304.5 331.455 304.5 330.134C304.5 328.813 305.535 327.768 306.78 327.768C308.025 327.768 309.06 328.813 309.06 330.134Z" stroke="#66C4FF"/>
<path d="M307.707 328.223L645 -352" stroke="#66C4FF"/>
<path d="M91.0598 485.134C91.0598 486.455 90.0248 487.5 88.7799 487.5C87.535 487.5 86.5 486.455 86.5 485.134C86.5 483.813 87.535 482.768 88.7799 482.768C90.0248 482.768 91.0598 483.813 91.0598 485.134Z" stroke="#66C4FF"/>
<path d="M89.7065 483.223L427 -197" stroke="#66C4FF"/>
<path d="M169.06 512.134C169.06 513.455 168.025 514.5 166.78 514.5C165.535 514.5 164.5 513.455 164.5 512.134C164.5 510.813 165.535 509.768 166.78 509.768C168.025 509.768 169.06 510.813 169.06 512.134Z" stroke="#66C4FF"/>
<path d="M167.707 510.223L505 -170" stroke="#66C4FF"/>
<path d="M79.0598 407.134C79.0598 408.455 78.0248 409.5 76.7799 409.5C75.535 409.5 74.5 408.455 74.5 407.134C74.5 405.813 75.535 404.768 76.7799 404.768C78.0248 404.768 79.0598 405.813 79.0598 407.134Z" stroke="#66C4FF"/>
<path d="M77.7065 405.223L415 -275" stroke="#66C4FF"/>
<path d="M5.05978 471.134C5.05978 472.455 4.02475 473.5 2.77989 473.5C1.53503 473.5 0.5 472.455 0.5 471.134C0.5 469.813 1.53503 468.768 2.77989 468.768C4.02475 468.768 5.05978 469.813 5.05978 471.134Z" stroke="#66C4FF"/>
<path d="M3.70654 469.223L341 -211" stroke="#66C4FF"/>
<circle cx="89" cy="591" r="2.5" stroke="#66C4FF"/>
<path d="M90 589L454 -123" stroke="#66C4FF"/>
</svg>
